<svg id="e12z05op8bdh1" xmlns="http://www.w3.org/2000/svg" xmlns:xlink="http://www.w3.org/1999/xlink" viewBox="0 0 60.170000 127.170000" shape-rendering="geometricPrecision" text-rendering="geometricPrecision"><style><![CDATA[#e12z05op8bdh4 {animation: e12z05op8bdh4_f_p 9000ms linear 1 normal forwards}@keyframes e12z05op8bdh4_f_p { 0% {fill: rgb(49,49,49);animation-timing-function: cubic-bezier(0.420000,0,0.580000,1)} 14.444444% {fill: rgb(253,247,244);animation-timing-function: cubic-bezier(0.420000,0,0.580000,1)} 30% {fill: rgba(148,176,149,0.76);animation-timing-function: cubic-bezier(0.420000,0,0.580000,1)} 45.555556% {fill: rgb(63,88,65);animation-timing-function: cubic-bezier(0.420000,0,0.580000,1)} 65.555556% {fill: rgb(80,63,43);animation-timing-function: cubic-bezier(0.420000,0,0.580000,1)} 81.111111% {fill: rgb(59,45,28);animation-timing-function: cubic-bezier(0.420000,0,0.580000,1)} 91.111111% {fill: rgb(0,0,0)} 100% {fill: rgb(0,0,0)} }]]></style><defs><filter id="e12z05op8bdh4-filter" x="-400%" width="600%" y="-400%" height="600%"><feGaussianBlur id="e12z05op8bdh4-filter-blur-0" stdDeviation="0,0" result="result"/></filter></defs><g id="e12z05op8bdh2"><g id="e12z05op8bdh3"><path id="e12z05op8bdh4" d="M146.850000,587.300000L173.960000,593.300000L173.960000,663.730000L146.850000,687.280000Z" transform="matrix(1 0 0 1 -123.81999999999999 -577.29999999999995)" filter="url(#e12z05op8bdh4-filter)" fill="rgb(49,49,49)" stroke="none" stroke-width="1"/></g></g><g id="e12z05op8bdh5"><rect id="e12z05op8bdh6" width="26" height="127" rx="0" ry="0" fill="rgb(152,152,152)" stroke="none" stroke-width="1"/><path id="e12z05op8bdh7" d="M172.675653,660.050000L183.670000,673.110000L149.330000,704.470000L149.330000,678.730000Z" transform="matrix(1 0 0 1 -123.81999999999999 -577.29999999999995)" fill="rgb(131,131,131)" stroke="none" stroke-width="1"/><path id="e12z05op8bdh8" d="M172.720348,594.822873L184,586.870000L184,673.814781L172.710000,660.006606Z" transform="matrix(1 0 0 1 -123.82000000000001 -576.86999999999989)" fill="rgb(152,152,152)" stroke="none" stroke-width="1"/><path id="e12z05op8bdh9" d="M183.730000,586.790000L172.400000,595.490000L149.750000,590.320000L149.750000,577.500000Z" transform="matrix(1 0 0 1 -123.81999999999999 -577.29999999999995)" fill="rgb(126,123,123)" stroke="none" stroke-width="1"/></g><g id="e12z05op8bdh10"><g id="e12z05op8bdh11"><rect id="e12z05op8bdh12" width="26" height="127" rx="0" ry="0" fill="rgb(152,152,152)" stroke="none" stroke-width="1"/><path id="e12z05op8bdh13" d="M48.855653,82.750000L59.850000,95.810000L25.510000,127.170000L25.510000,101.430000Z" fill="rgb(131,131,131)" stroke="none" stroke-width="1"/><path id="e12z05op8bdh14" d="M49.001807,15.910413L60.230000,9.180000L60.230000,82.735000L48.940000,71.074560Z" transform="matrix(1 0 0 1 -0.05000000000000 0.01500000000000)" fill="rgb(152,152,152)" stroke="none" stroke-width="1"/><path id="e12z05op8bdh15" d="M59.910000,9.490000L48.580000,18.190000L25.930000,13L25.930000,0.200000Z" fill="rgb(126,123,123)" stroke="none" stroke-width="1"/></g></g></svg>