<svg id="emx0o1fpkpcq1" xmlns="http://www.w3.org/2000/svg" xmlns:xlink="http://www.w3.org/1999/xlink" viewBox="0 0 125.840000 157.360000" shape-rendering="geometricPrecision" text-rendering="geometricPrecision"><style><![CDATA[#emx0o1fpkpcq18_to {animation: emx0o1fpkpcq18_to__to 16000ms linear 1 normal forwards}@keyframes emx0o1fpkpcq18_to__to { 0% {transform: translate(72.371471px,57.437545px)} 21.875000% {transform: translate(72.371471px,57.437545px)} 46.937500% {transform: translate(88.907157px,148.134827px)} 100% {transform: translate(88.907157px,148.134827px)} }#emx0o1fpkpcq18_tr {animation: emx0o1fpkpcq18_tr__tr 16000ms linear 1 normal forwards}@keyframes emx0o1fpkpcq18_tr__tr { 0% {transform: rotate(-97.413783deg)} 15% {transform: rotate(-97.413783deg)} 31.312500% {transform: rotate(-104.550611deg)} 40.312500% {transform: rotate(-125.558681deg)} 44.250000% {transform: rotate(-149.767093deg)} 100% {transform: rotate(-149.767093deg)} }#emx0o1fpkpcq21_to {animation: emx0o1fpkpcq21_to__to 16000ms linear 1 normal forwards}@keyframes emx0o1fpkpcq21_to__to { 0% {offset-distance: 0%} 78.125000% {offset-distance: 0%;animation-timing-function: cubic-bezier(0.470000,0,0.745000,0.715000)} 95.687500% {offset-distance: 100%} 100% {offset-distance: 100%} }#emx0o1fpkpcq21_tr {animation: emx0o1fpkpcq21_tr__tr 16000ms linear 1 normal forwards}@keyframes emx0o1fpkpcq21_tr__tr { 0% {transform: rotate(-10.020005deg)} 78.125000% {transform: rotate(-10.020005deg);animation-timing-function: cubic-bezier(0.420000,0,0.580000,1)} 85% {transform: rotate(-19.217262deg);animation-timing-function: cubic-bezier(0.420000,0,0.580000,1)} 88% {transform: rotate(-25.282344deg);animation-timing-function: cubic-bezier(0.420000,0,0.580000,1)} 89.875000% {transform: rotate(-36.797209deg);animation-timing-function: cubic-bezier(0.420000,0,0.580000,1)} 93.875000% {transform: rotate(-49.076427deg);animation-timing-function: cubic-bezier(0.420000,0,0.580000,1)} 95.625000% {transform: rotate(-57.816467deg)} 100% {transform: rotate(-57.816467deg)} }#emx0o1fpkpcq23_to {animation: emx0o1fpkpcq23_to__to 16000ms linear 1 normal forwards}@keyframes emx0o1fpkpcq23_to__to { 0% {offset-distance: 0%;animation-timing-function: cubic-bezier(0.470000,0,0.745000,0.715000)} 14.375000% {offset-distance: 50%} 21.875000% {offset-distance: 100%} 100% {offset-distance: 100%} }#emx0o1fpkpcq25_to {animation: emx0o1fpkpcq25_to__to 16000ms linear 1 normal forwards}@keyframes emx0o1fpkpcq25_to__to { 0% {offset-distance: 0%} 47.562500% {offset-distance: 0%;animation-timing-function: cubic-bezier(0.470000,0,0.745000,0.715000)} 76.250000% {offset-distance: 100%} 100% {offset-distance: 100%} }#emx0o1fpkpcq25_tr {animation: emx0o1fpkpcq25_tr__tr 16000ms linear 1 normal forwards}@keyframes emx0o1fpkpcq25_tr__tr { 0% {transform: rotate(-6.414926deg)} 47.500000% {transform: rotate(-6.414926deg)} 59.375000% {transform: rotate(11.545242deg)} 67.500000% {transform: rotate(32.325466deg)} 72.500000% {transform: rotate(41.452804deg)} 76.250000% {transform: rotate(55.509488deg)} 100% {transform: rotate(55.509488deg)} }]]></style><defs><linearGradient id="emx0o1fpkpcq16-fill" x1="22.396589" y1="745.825936" x2="57.231390" y2="720.210235" spreadMethod="pad" gradientUnits="userSpaceOnUse"><stop id="emx0o1fpkpcq16-fill-0" offset="0%" stop-color="rgba(108,106,100,0)"/><stop id="emx0o1fpkpcq16-fill-1" offset="100%" stop-color="rgb(26,26,26)"/></linearGradient></defs><g id="emx0o1fpkpcq2"><g id="emx0o1fpkpcq3"><path id="emx0o1fpkpcq4" d="M44.300000,606.700000C44.300000,606.700000,53,603.130000,76.530000,602.610000C86.943063,602.989529,97.296389,604.359034,107.450000,606.700000C117.603611,609.040966,106.040000,620.270000,100.050000,642.090000C102.470000,673.160000,104.210000,716.990000,85.970000,717.450000C76.390000,717.450000,76.500000,718.040000,66.970000,717.450000C55.140000,714,48.470000,691.600000,52.660000,644.720000C52.200000,633.110000,44.300000,623,44.300000,606.700000Z" transform="matrix(1 0 0 1 -6.20855536000018 -580.42977701999985)" fill="rgb(26,26,26)" stroke="none" stroke-width="1"/><ellipse id="emx0o1fpkpcq5" style="isolation:isolate" rx="24.500000" ry="2.500000" transform="matrix(1 0 0 1 69.87000000000000 30.33000000000000)" opacity="0.43" fill="rgb(203,203,203)" stroke="none" stroke-width="1"/><path id="emx0o1fpkpcq6" d="M110.740000,610.450000C112.560000,596.020000,86.540000,608.090000,86.910000,613.290000" transform="matrix(1 0 0 1 -5.93000000000000 -580.88000000000000)" fill="none" stroke="rgb(60,84,62)" stroke-width="2"/><path id="emx0o1fpkpcq7" d="M33.720000,602.360000C41.720000,570.840000,63.840000,612.980000,63.840000,612.980000" transform="matrix(1 0 0 1 -5.93000000000000 -580.88000000000000)" fill="none" stroke="rgb(60,84,62)" stroke-width="2"/><path id="emx0o1fpkpcq8" d="M55.420000,602.190000C60.850000,585.190000,68.990000,590.190000,69.640000,598.120000C70.309995,603.167865,70.309995,608.282135,69.640000,613.330000" transform="matrix(1 0 0 1 -5.93000000000000 -580.88000000000000)" fill="none" stroke="rgb(60,84,62)" stroke-width="2"/><path id="emx0o1fpkpcq9" d="M107,624.730000C112.280000,599.180000,95.440000,609.560000,96.290000,612.580000" transform="matrix(1 0 0 1 -5.93000000000000 -580.88000000000000)" fill="none" stroke="rgb(60,84,62)" stroke-width="2"/><path id="emx0o1fpkpcq10" d="M75.270000,630.180000C77.520000,604.890000,80.850000,608.180000,80.980000,613.630000" transform="matrix(1 0 0 1 -5.93000000000000 -580.88000000000000)" fill="none" stroke="rgb(60,84,62)" stroke-width="2"/><path id="emx0o1fpkpcq11" d="M88.670000,590.820000C83.800000,561.580000,74.590000,613.420000,74.590000,613.420000" transform="matrix(1 0 0 1 -5.93000000000000 -580.88000000000000)" fill="none" stroke="rgb(60,84,62)" stroke-width="2"/><path id="emx0o1fpkpcq12" d="M43.490000,630.840000C32.910000,599.100000,49.490000,600.100000,52.170000,604.390000C54.226206,606.591406,55.282712,609.543834,55.090000,612.550000" transform="matrix(1 0 0 1 -5.93000000000000 -580.88000000000000)" fill="none" stroke="rgb(60,84,62)" stroke-width="2"/><path id="emx0o1fpkpcq13" d="M114,590.700000C109.660000,568.600000,91.540000,613,91.540000,613" transform="matrix(1 0 0 1 -5.93000000000000 -580.88000000000000)" fill="none" stroke="rgb(60,84,62)" stroke-width="2"/><ellipse id="emx0o1fpkpcq14" rx="10" ry="12.510000" transform="matrix(0.48481000000000 -0.87462000000000 0.87462000000000 0.48481000000000 112.62959620000004 131.95382690000028)" fill="rgb(137,133,142)" stroke="none" stroke-width="1"/><ellipse id="emx0o1fpkpcq15" rx="7" ry="5" transform="matrix(1 0 0 1 105.37000000000000 113.83000000000000)" fill="rgb(140,147,140)" stroke="none" stroke-width="1"/><path id="emx0o1fpkpcq16" style="isolation:isolate" d="M62.080000,717.060000L88.870000,717.060000L28.660000,738.230000L5.930000,729.710000Z" transform="matrix(1 0 0 1 -5.93000000000000 -580.88000000000000)" opacity="0.43" fill="url(#emx0o1fpkpcq16-fill)" stroke="none" stroke-width="1"/><ellipse id="emx0o1fpkpcq17" rx="4.500000" ry="14.500000" transform="matrix(0.17399200000000 -0.98474700000000 0.98474700000000 0.17399200000000 30.01751385000000 139.50348254999952)" fill="rgb(140,147,140)" stroke="none" stroke-width="1"/><g id="emx0o1fpkpcq18_to" transform="translate(72.371471,57.437545)"><g id="emx0o1fpkpcq18_tr" transform="rotate(-97.413783)"><ellipse id="emx0o1fpkpcq18" rx="5" ry="3.500000" transform="scale(1.315629,1.107333) translate(5.145252,-1.038251)" fill="rgb(153,160,153)" stroke="none" stroke-width="1"/></g></g><ellipse id="emx0o1fpkpcq19" rx="6.500000" ry="3.500000" transform="matrix(0.19080900000000 -0.98162700000000 0.98162700000000 0.19080900000000 73.87245860000007 144.33085220000007)" fill="rgb(137,133,142)" stroke="none" stroke-width="1"/></g></g><g id="emx0o1fpkpcq20"><g id="emx0o1fpkpcq21_to" style="offset-path:path('M109.883407,22.726459Q116.463688,33.158843,110.908454,147.429064');offset-rotate:0deg"><g id="emx0o1fpkpcq21_tr" transform="rotate(-10.020005)"><ellipse id="emx0o1fpkpcq21" rx="4.500000" ry="14.500000" transform="skewX(-0) skewY(0) scale(1,1) translate(-0,-0)" fill="rgb(140,147,140)" stroke="none" stroke-width="1"/></g></g></g><g id="emx0o1fpkpcq22"><g id="emx0o1fpkpcq23_to" style="offset-path:path('M38.091445,51.896394Q39.049170,58.000904,45.093851,87.514705L56.635068,144.533812');offset-rotate:0deg"><circle id="emx0o1fpkpcq23" r="5.500000" transform="rotate(-4.411869) scale(1,1) translate(-0,0)" fill="rgb(111,109,113)" stroke="none" stroke-width="1"/></g></g><g id="emx0o1fpkpcq24"><g id="emx0o1fpkpcq25_to" style="offset-path:path('M83.933609,17.879880Q105.300879,104.091226,93.471953,140.595659');offset-rotate:0deg"><g id="emx0o1fpkpcq25_tr" transform="rotate(-6.414926)"><ellipse id="emx0o1fpkpcq25" rx="4" ry="8.500000" transform="scale(1,1) translate(-0,-0)" fill="rgb(111,109,113)" stroke="none" stroke-width="1"/></g></g></g></svg>