<svg id="e6r7rxn2jd731" xmlns="http://www.w3.org/2000/svg" xmlns:xlink="http://www.w3.org/1999/xlink" viewBox="0 0 256.780000 401.700000" shape-rendering="geometricPrecision" text-rendering="geometricPrecision"><style><![CDATA[#e6r7rxn2jd7318_to {animation: e6r7rxn2jd7318_to__to 6000ms linear 1 normal forwards}@keyframes e6r7rxn2jd7318_to__to { 0% {transform: translate(-1636.916977px,-237.432146px)} 6.666667% {transform: translate(-1619.521054px,-244.563606px)} 19.166667% {transform: translate(-1596.445147px,-254.955814px)} 30% {transform: translate(-1571.941119px,-266.609600px)} 50% {transform: translate(-1543.195147px,-266.501140px)} 66.666667% {transform: translate(-1507.977446px,-277.065924px)} 81.666667% {transform: translate(-1483.805147px,-281.883922px)} 90% {transform: translate(-1322.430660px,-318.865269px)} 100% {transform: translate(-1322.430660px,-318.865269px)} }#e6r7rxn2jd7318 {
           animation-name: e6r7rxn2jd7318_c_o, e6r7rxn2jd7318_f_o;
           animation-duration: 6000ms;
           animation-fill-mode: forwards;
           animation-timing-function: linear;
           animation-direction: normal;
           animation-iteration-count: 1;  
        }@keyframes e6r7rxn2jd7318_c_o { 0% {opacity: 1} 6.666667% {opacity: 1} 8.333333% {opacity: 1} 10% {opacity: 1} 16.666667% {opacity: 1} 21.666667% {opacity: 1} 25% {opacity: 1} 28.333333% {opacity: 1} 31.666667% {opacity: 1} 33.333333% {opacity: 1} 36.666667% {opacity: 1} 38.333333% {opacity: 1} 41.666667% {opacity: 1} 45% {opacity: 1} 46.666667% {opacity: 1} 53.333333% {opacity: 1} 55% {opacity: 1} 56.666667% {opacity: 1} 58.333333% {opacity: 1} 60% {opacity: 1} 61.666667% {opacity: 1} 63.333333% {opacity: 1} 65% {opacity: 1} 66.666667% {opacity: 1} 68.333333% {opacity: 1} 70% {opacity: 1} 71.666667% {opacity: 1} 73.333333% {opacity: 1} 75% {opacity: 1} 76.666667% {opacity: 1} 78.333333% {opacity: 1} 80% {opacity: 1} 81.666667% {opacity: 1} 83.333333% {opacity: 1} 85% {opacity: 0} 86.666667% {opacity: 0} 100% {opacity: 0} }@keyframes e6r7rxn2jd7318_f_o { 0% {fill-opacity: 1} 16.666667% {fill-opacity: 1} 18.333333% {fill-opacity: 1} 20% {fill-opacity: 1} 21.666667% {fill-opacity: 1} 23.333333% {fill-opacity: 1} 25% {fill-opacity: 1} 26.666667% {fill-opacity: 1} 28.333333% {fill-opacity: 1} 30% {fill-opacity: 1} 31.666667% {fill-opacity: 1} 33.333333% {fill-opacity: 1} 35% {fill-opacity: 1} 36.666667% {fill-opacity: 1} 38.333333% {fill-opacity: 1} 40% {fill-opacity: 1} 41.666667% {fill-opacity: 1} 43.333333% {fill-opacity: 1} 45% {fill-opacity: 1} 46.666667% {fill-opacity: 1} 48.333333% {fill-opacity: 1} 50% {fill-opacity: 1} 51.666667% {fill-opacity: 1} 53.333333% {fill-opacity: 1} 55% {fill-opacity: 1} 56.666667% {fill-opacity: 1} 58.333333% {fill-opacity: 1} 60% {fill-opacity: 1} 61.666667% {fill-opacity: 1} 63.333333% {fill-opacity: 1} 65% {fill-opacity: 1} 66.666667% {fill-opacity: 1} 68.333333% {fill-opacity: 1} 70% {fill-opacity: 1} 71.666667% {fill-opacity: 1} 73.333333% {fill-opacity: 1} 75% {fill-opacity: 1} 76.666667% {fill-opacity: 1} 78.333333% {fill-opacity: 1} 80% {fill-opacity: 1} 81.666667% {fill-opacity: 1} 100% {fill-opacity: 1} }#e6r7rxn2jd7320_to {animation: e6r7rxn2jd7320_to__to 6000ms linear 1 normal forwards}@keyframes e6r7rxn2jd7320_to__to { 0% {transform: translate(-1636.916977px,-237.432146px)} 6.666667% {transform: translate(-1619.521054px,-244.563606px)} 19.166667% {transform: translate(-1596.445147px,-254.955814px)} 30% {transform: translate(-1571.941119px,-266.609600px)} 50% {transform: translate(-1543.195147px,-266.501140px)} 66.666667% {transform: translate(-1507.977446px,-277.065924px)} 81.666667% {transform: translate(-1483.805147px,-281.883922px)} 90% {transform: translate(-1322.430660px,-318.865269px)} 100% {transform: translate(-1322.430660px,-318.865269px)} }#e6r7rxn2jd7320 {animation: e6r7rxn2jd7320_f_o 6000ms linear 1 normal forwards}@keyframes e6r7rxn2jd7320_f_o { 0% {fill-opacity: 1} 1.666667% {fill-opacity: 1} 3.333333% {fill-opacity: 1} 5% {fill-opacity: 1} 6.666667% {fill-opacity: 1} 8.333333% {fill-opacity: 1} 10% {fill-opacity: 1} 11.666667% {fill-opacity: 1} 13.333333% {fill-opacity: 1} 15% {fill-opacity: 1} 16.666667% {fill-opacity: 1} 18.333333% {fill-opacity: 1} 20% {fill-opacity: 1} 21.666667% {fill-opacity: 1} 23.333333% {fill-opacity: 1} 25% {fill-opacity: 1} 26.666667% {fill-opacity: 1} 28.333333% {fill-opacity: 1} 30% {fill-opacity: 1} 31.666667% {fill-opacity: 1} 33.333333% {fill-opacity: 1} 35% {fill-opacity: 1} 36.666667% {fill-opacity: 1} 38.333333% {fill-opacity: 1} 40% {fill-opacity: 1} 41.666667% {fill-opacity: 1} 43.333333% {fill-opacity: 1} 45% {fill-opacity: 1} 46.666667% {fill-opacity: 1} 48.333333% {fill-opacity: 1} 50% {fill-opacity: 1} 51.666667% {fill-opacity: 1} 53.333333% {fill-opacity: 1} 55% {fill-opacity: 1} 56.666667% {fill-opacity: 1} 58.333333% {fill-opacity: 1} 60% {fill-opacity: 1} 61.666667% {fill-opacity: 1} 63.333333% {fill-opacity: 1} 65% {fill-opacity: 1} 66.666667% {fill-opacity: 1} 68.333333% {fill-opacity: 1} 70% {fill-opacity: 1} 71.666667% {fill-opacity: 1} 73.333333% {fill-opacity: 1} 75% {fill-opacity: 1} 76.666667% {fill-opacity: 1} 78.333333% {fill-opacity: 1} 80% {fill-opacity: 1} 81.666667% {fill-opacity: 1} 83.333333% {fill-opacity: 1} 85% {fill-opacity: 0} 86.666667% {fill-opacity: 0} 100% {fill-opacity: 0} }#e6r7rxn2jd7322_to {animation: e6r7rxn2jd7322_to__to 6000ms linear 1 normal forwards}@keyframes e6r7rxn2jd7322_to__to { 0% {transform: translate(-1641.719375px,-237.488619px)} 6.666667% {transform: translate(-1624.323452px,-244.620080px)} 19.166667% {transform: translate(-1601.247545px,-255.012288px)} 30% {transform: translate(-1576.743517px,-266.666073px)} 50% {transform: translate(-1547.997545px,-266.557614px)} 66.666667% {transform: translate(-1512.779844px,-277.122398px)} 81.666667% {transform: translate(-1488.607545px,-281.940396px)} 90% {transform: translate(-1327.233058px,-318.921742px)} 100% {transform: translate(-1327.233058px,-318.921742px)} }#e6r7rxn2jd7322 {animation: e6r7rxn2jd7322_c_o 6000ms linear 1 normal forwards}@keyframes e6r7rxn2jd7322_c_o { 0% {opacity: 1} 1.666667% {opacity: 1} 3.333333% {opacity: 1} 5% {opacity: 1} 6.666667% {opacity: 1} 8.333333% {opacity: 1} 10% {opacity: 1} 11.666667% {opacity: 1} 80% {opacity: 1} 81.666667% {opacity: 1} 83.333333% {opacity: 0} 85% {opacity: 0} 100% {opacity: 0} }]]></style><defs><clipPath id="e6r7rxn2jd732"><rect id="e6r7rxn2jd733" width="1920" height="1080" rx="0" ry="0" transform="matrix(1 0 0 1 0.17000000000000 -0.07000000000000)" fill="none" stroke="none" stroke-width="1"/></clipPath><clipPath id="e6r7rxn2jd734"><rect id="e6r7rxn2jd735" width="1920" height="1080" rx="0" ry="0" transform="matrix(1 0 0 1 -0.23000000000000 -0.44000000000000)" fill="none" stroke="none" stroke-width="1"/></clipPath></defs><g id="e6r7rxn2jd736"><g id="e6r7rxn2jd737" clip-path="url(#e6r7rxn2jd732)"><g id="e6r7rxn2jd738"><g id="e6r7rxn2jd739"><g id="e6r7rxn2jd7310" opacity="0.73"><path id="e6r7rxn2jd7311" d="M1881.890000,237.760000L1635.550000,301.480000L1635.550000,542L1881.890000,627.080000L1881.890000,237.760000M1884.440000,231.940000C1885.790000,231.940000,1886.890000,235.370000,1886.890000,237.080000L1886.890000,630.080000C1886.890000,631.790000,1885.790000,633.180000,1884.440000,633.180000L1633,546.390000C1631.650000,546.390000,1630.550000,545,1630.550000,543.290000L1630.550000,300.080000C1630.550000,298.370000,1631.650000,296.980000,1633,296.980000Z" transform="matrix(1 0 0 1 -1630.10999999999990 -231.53999999999999)" fill="rgb(65,64,62)" stroke="none" stroke-width="1"/><path id="e6r7rxn2jd7312" d="M1884.320000,630.550000L1633.820000,544L1633.420000,543.860000L1633.200000,543.860000C1633.096149,543.677449,1633.044273,543.469945,1633.050000,543.260000L1633.050000,300.080000C1633.041590,299.869770,1633.093648,299.661539,1633.200000,299.480000L1633.320000,299.480000L1633.630000,299.400000L1883.800000,234.690000C1883.907726,234.911504,1883.994763,235.142485,1884.060000,235.380000C1884.247237,235.928906,1884.358273,236.500907,1884.390000,237.080000L1884.390000,630.080000C1884.396445,630.239675,1884.372696,630.399133,1884.320000,630.550000Z" transform="matrix(1 0 0 1 -1630.10999999999990 -231.53999999999999)" fill="rgb(80,63,43)" stroke="none" stroke-width="1"/></g><path id="e6r7rxn2jd7313" d="M1641.170000,310.900000L1650.170000,313.370000L1649.970000,531.930000L1641.230000,532.470000Z" transform="matrix(1 0 0 1 -1630.10999999999990 -231.53999999999999)" fill="rgb(145,132,132)" stroke="none" stroke-width="1"/><path id="e6r7rxn2jd7314" d="M1866.580000,264.410000L1866.580000,270L1650.180000,313.620000L1641.180000,310.900000Z" transform="matrix(1 0 0 1 -1630.10999999999990 -231.53999999999999)" fill="rgb(70,70,70)" stroke="none" stroke-width="1"/></g></g></g></g><g id="e6r7rxn2jd7315"><path id="e6r7rxn2jd7316" style="isolation:isolate" d="M1650,314L1867,270L1867,597L1650,532Z" transform="matrix(1 0 0 1 -1630.10999999999990 -231.53999999999999)" opacity="0.86" fill="rgb(158,165,188)" stroke="none" stroke-width="1"/></g><g id="e6r7rxn2jd7317"><g id="e6r7rxn2jd7318_to" transform="translate(-1636.916977,-237.432146)"><path id="e6r7rxn2jd7318" d="M1705.057461,399.205593L1704.546065,399.510476C1703.757301,400.025623,1703.280575,400.351532,1702.864524,400.645902C1702.261293,401.088367,1701.639242,401.491934,1701.000961,401.854920C1699.277310,402.963313,1697.433027,403.770315,1695.522952,404.251930C1693.789405,404.609379,1691.743819,404.367575,1687.721990,403.715756C1685.477046,403.347794,1683.648154,402.958806,1682.400000,402.664436C1683.145425,401.350286,1684.748956,398.974303,1685.494382,397.660153L1685.962439,396.913715C1689.415649,397.545497,1692.931926,397.467306,1696.363722,396.682425C1697.975921,396.293437,1698.964043,395.978041,1701.971747,395.210577L1702.127767,395.210577Q1702.708505,395.073905,1703.271908,394.989800Z" transform="rotate(0.020680) translate(0,0)" fill="rgb(67,67,67)" stroke="none" stroke-width="1"/></g></g><g id="e6r7rxn2jd7319"><g id="e6r7rxn2jd7320_to" transform="translate(-1636.916977,-237.432146)"><path id="e6r7rxn2jd7320" d="M1683.536848,402.919913C1674.579467,402.151132,1662.594102,405.245966,1654.844021,406.340000C1662.263069,400.179900,1680.314138,396.483840,1688.220000,397.725717" transform="rotate(0.020680) scale(1.001289,1) translate(0,0)" fill="rgb(67,67,67)" stroke="none" stroke-width="1" stroke-opacity="0"/></g></g><g id="e6r7rxn2jd7321"><g id="e6r7rxn2jd7322_to" transform="translate(-1641.719375,-237.488619)"><path id="e6r7rxn2jd7322" d="M1705,395.190778C1711.650000,393.604397,1714.750000,394.766253,1716.510000,395.190778C1719.516778,395.994340,1722.318578,397.557471,1724.700000,399.760000C1721.130000,398.955638,1714.020000,397.961357,1707.930000,399.760000" transform="rotate(0.020680) translate(0,0)" fill="rgb(67,67,67)" stroke="none" stroke-width="1"/></g></g><g id="e6r7rxn2jd7323"><path id="e6r7rxn2jd7324" d="M1842.170000,536.930000C1842.410000,536.780000,1845.970000,536.700000,1849.170000,540.850000C1855.310000,543.450000,1864.340000,546.990000,1866.610000,554.120000C1866.550000,567.820000,1866.690000,582.290000,1866.610000,601.580000C1857.310000,598.850000,1852.840000,597.390000,1834.830000,591.690000C1829.390000,590.090000,1817.140000,574.960000,1817.140000,561.430000C1817.140000,554.430000,1826.810000,553.950000,1831.800000,549.280000C1836.090000,545.280000,1835.470000,536.930000,1842.170000,536.930000Z" transform="matrix(1 0 0 1 -1630.10999999999990 -231.53999999999999)" fill="rgb(63,88,65)" stroke="none" stroke-width="1"/><path id="e6r7rxn2jd7325" d="M1866.600000,524.520000C1866.600000,531.060000,1866.600000,544.990000,1866.650000,554.570000C1865.750000,556.830000,1863.580000,557.890000,1860.810000,557.750000C1850.060000,557.190000,1853.720000,560.230000,1854.210000,550.850000C1854.700000,541.470000,1851.710000,522.520000,1866.600000,524.520000Z" transform="matrix(1 0 0 1 -1630.10999999999990 -231.53999999999999)" fill="rgb(63,88,65)" stroke="none" stroke-width="1"/><path id="e6r7rxn2jd7326" d="M1821.150000,573.590000C1829.970000,573.590000,1840.350000,593.020000,1840.350000,593.310000L1806.670000,583.070000C1806.670000,574,1812,573.590000,1821.150000,573.590000Z" transform="matrix(1 0 0 1 -1630.10999999999990 -231.53999999999999)" fill="rgb(63,88,65)" stroke="none" stroke-width="1"/><path id="e6r7rxn2jd7327" d="M1866.650000,602L1866.650000,597.290000L1650.100000,531.760000L1640.990000,532.360000Z" transform="matrix(1 0 0 1 -1630.10999999999990 -231.53999999999999)" fill="rgb(111,111,111)" stroke="none" stroke-width="1"/><g id="e6r7rxn2jd7328" clip-path="url(#e6r7rxn2jd734)"><g id="e6r7rxn2jd7329"><g id="e6r7rxn2jd7330"><path id="e6r7rxn2jd7331" d="M1640.770000,310.530000L1649.770000,312.990000L1649.570000,531.560000L1640.830000,532.100000Z" transform="matrix(1 0 0 1 -1630.10999999999990 -231.53999999999999)" fill="rgb(145,132,132)" stroke="none" stroke-width="1"/><path id="e6r7rxn2jd7332" d="M1866.180000,264L1866.180000,269.580000L1649.790000,313.200000L1640.790000,310.480000Z" transform="matrix(1 0 0 1 -1630.10999999999990 -231.53999999999999)" fill="rgb(70,70,70)" stroke="none" stroke-width="1"/><path id="e6r7rxn2jd7333" d="M1866.250000,601.580000L1866.250000,596.870000L1649.700000,531.390000L1640.590000,531.990000Z" transform="matrix(1 0 0 1 -1630.10999999999990 -231.53999999999999)" fill="rgb(111,111,111)" stroke="none" stroke-width="1"/></g><path id="e6r7rxn2jd7334" d="M1633.900000,296.200000L1879,232.810000L1882.650000,237.200000L1632.720000,301.690000Z" transform="matrix(1 0 0 1 -1630.10999999999990 -231.53999999999999)" fill="rgb(94,93,91)" stroke="none" stroke-width="1"/><path id="e6r7rxn2jd7335" d="M1631.920000,296.710000L1634.610000,296.080000C1635.710000,296.080000,1636.210000,297.880000,1636.210000,298.980000L1636.770000,543.560000C1636.770000,544.660000,1636.870000,547.130000,1635.770000,547.130000L1632.650000,546.130000C1631.190004,545.941231,1630.107401,544.681788,1630.140000,543.210000L1630.140000,299.470000C1630.150001,298.283289,1630.843080,297.208626,1631.920000,296.710000Z" transform="matrix(1 0 0 1 -1630.10999999999990 -231.53999999999999)" fill="rgb(94,93,91)" stroke="none" stroke-width="1"/><path id="e6r7rxn2jd7336" d="M1635.140000,301.170000L1640.540000,299.740000L1640.770000,542.560000L1635.260000,541.380000Z" transform="matrix(1 0 0 1 -1630.10999999999990 -231.53999999999999)" fill="rgb(105,92,78)" stroke="none" stroke-width="1"/><path id="e6r7rxn2jd7337" d="M1636.430000,541.810000L1882.870000,627L1882.170000,632.340000L1635.540000,547.110000Z" transform="matrix(1 0 0 1 -1630.10999999999990 -231.53999999999999)" fill="rgb(94,93,91)" stroke="none" stroke-width="1"/><path id="e6r7rxn2jd7338" d="M1883.800000,632.870000L1879.130000,631.240000C1878.030000,631.240000,1876.270000,508.640000,1876.270000,507.530000L1879.110000,238.650000C1879.110000,237.550000,1878.010000,232.760000,1879.110000,232.760000L1884.110000,231.540000C1885.810000,231.590000,1886.590000,235.860000,1886.590000,236.960000L1886.590000,628.960000C1886.710000,633.120000,1883.800000,632.870000,1883.800000,632.870000Z" transform="matrix(1 0 0 1 -1630.10999999999990 -231.53999999999999)" fill="rgb(94,93,91)" stroke="none" stroke-width="1"/><path id="e6r7rxn2jd7339" d="M1881.490000,606L1881.490000,626.700000L1635.290000,541.410000L1640.810000,531.980000Z" transform="matrix(1 0 0 1 -1630.10999999999990 -231.53999999999999)" fill="rgb(105,92,78)" stroke="none" stroke-width="1"/><path id="e6r7rxn2jd7340" d="M1881.510000,606.740000L1866.170000,602.600000L1866.060000,258.600000L1881.470000,237.370000Z" transform="matrix(1 0 0 1 -1630.10999999999990 -231.53999999999999)" fill="rgb(105,92,78)" stroke="none" stroke-width="1"/><path id="e6r7rxn2jd7341" d="M1881.450000,237.410000L1869.450000,263.340000L1638.610000,310.920000L1635.090000,301.100000Z" transform="matrix(1 0 0 1 -1630.10999999999990 -231.53999999999999)" fill="rgb(105,92,78)" stroke="none" stroke-width="1"/></g></g></g></svg>