<svg id="ezd0x4dv9muh1" xmlns="http://www.w3.org/2000/svg" xmlns:xlink="http://www.w3.org/1999/xlink" viewBox="0 0 161 121" shape-rendering="geometricPrecision" text-rendering="geometricPrecision"><style><![CDATA[#ezd0x4dv9muh5_to {animation: ezd0x4dv9muh5_to__to 12000ms linear infinite normal forwards}@keyframes ezd0x4dv9muh5_to__to { 0% {transform: translate(-0.957012px,-8.510000px)} 4.166667% {transform: translate(-0.957012px,1.931511px)} 8.333333% {transform: translate(-0.957012px,9.901511px)} 12.500000% {transform: translate(-1.462012px,19.924114px)} 16.666667% {transform: translate(-1.462012px,22.860000px)} 100% {transform: translate(-1.462012px,22.860000px)} }#ezd0x4dv9muh6_to {animation: ezd0x4dv9muh6_to__to 12000ms linear infinite normal forwards}@keyframes ezd0x4dv9muh6_to__to { 0% {transform: translate(-0.957012px,-9.077803px)} 18.333333% {transform: translate(-0.957012px,-9.077803px)} 22.500000% {transform: translate(-0.957012px,1.931511px)} 26.666667% {transform: translate(-0.957012px,9.901511px)} 31.666667% {transform: translate(-1.462012px,19.924114px)} 37.500000% {transform: translate(-1.462012px,22.860000px)} 100% {transform: translate(-1.462012px,22.860000px)} }#ezd0x4dv9muh8_to {animation: ezd0x4dv9muh8_to__to 12000ms linear infinite normal forwards}@keyframes ezd0x4dv9muh8_to__to { 0% {transform: translate(-0.957012px,-9.077803px)} 80% {transform: translate(-0.957012px,-9.077803px)} 85% {transform: translate(-0.957012px,1.931511px)} 90.833333% {transform: translate(-1.462012px,19.924114px)} 95.833333% {transform: translate(-1.462012px,30.830000px)} 100% {transform: translate(-1.462012px,30.830000px)} }#ezd0x4dv9muh9_to {animation: ezd0x4dv9muh9_to__to 12000ms linear infinite normal forwards}@keyframes ezd0x4dv9muh9_to__to { 0% {transform: translate(-0.957012px,-9.077803px)} 60% {transform: translate(-0.957012px,-9.077803px)} 64.166667% {transform: translate(-0.957012px,1.931511px)} 69.166667% {transform: translate(-0.957012px,9.901511px)} 74.166667% {transform: translate(-1.462012px,19.924114px)} 79.166667% {transform: translate(-1.462012px,22.860000px)} 100% {transform: translate(-1.462012px,22.860000px)} }#ezd0x4dv9muh10_to {animation: ezd0x4dv9muh10_to__to 12000ms linear infinite normal forwards}@keyframes ezd0x4dv9muh10_to__to { 0% {transform: translate(-0.957012px,-9.077803px)} 39.166667% {transform: translate(-0.957012px,-9.077803px)} 44.166667% {transform: translate(-0.957012px,1.931511px)} 49.166667% {transform: translate(-0.957012px,9.901511px)} 54.166667% {transform: translate(-1.462012px,19.924114px)} 59.166667% {transform: translate(-1.462012px,22.860000px)} 100% {transform: translate(-1.462012px,22.860000px)} }]]></style><defs><radialGradient id="ezd0x4dv9muh13-fill" cx="0.496901" cy="0.442879" r="1.228231" spreadMethod="pad" gradientUnits="objectBoundingBox"><stop id="ezd0x4dv9muh13-fill-0" offset="0%" stop-color="rgb(100,100,100)"/><stop id="ezd0x4dv9muh13-fill-1" offset="100%" stop-color="rgb(60,60,56)"/></radialGradient><linearGradient id="ezd0x4dv9muh14-fill" x1="0.451227" y1="0.580655" x2="0.541777" y2="0.490821" spreadMethod="pad" gradientUnits="objectBoundingBox"><stop id="ezd0x4dv9muh14-fill-0" offset="0%" stop-color="rgba(96,94,86,0.17)"/><stop id="ezd0x4dv9muh14-fill-1" offset="100%" stop-color="rgba(62,62,62,0.44)"/></linearGradient><linearGradient id="ezd0x4dv9muh15-fill" x1="0.498113" y1="-0.004167" x2="0.498113" y2="0.995833" spreadMethod="pad" gradientUnits="objectBoundingBox"><stop id="ezd0x4dv9muh15-fill-0" offset="0%" stop-color="rgb(60,60,56)"/><stop id="ezd0x4dv9muh15-fill-1" offset="50%" stop-color="rgb(88,88,87)"/><stop id="ezd0x4dv9muh15-fill-2" offset="100%" stop-color="rgb(60,60,56)"/></linearGradient><linearGradient id="ezd0x4dv9muh18-fill" x1="1.185996" y1="0.502353" x2="0.185996" y2="0.502353" spreadMethod="pad" gradientUnits="objectBoundingBox"><stop id="ezd0x4dv9muh18-fill-0" offset="0%" stop-color="rgb(60,60,56)"/><stop id="ezd0x4dv9muh18-fill-1" offset="50%" stop-color="rgb(88,88,87)"/><stop id="ezd0x4dv9muh18-fill-2" offset="100%" stop-color="rgb(60,60,56)"/></linearGradient><linearGradient id="ezd0x4dv9muh20-fill" x1="0.507277" y1="0.489379" x2="1.046208" y2="-0.120644" spreadMethod="pad" gradientUnits="objectBoundingBox"><stop id="ezd0x4dv9muh20-fill-0" offset="0%" stop-color="rgba(0,0,0,0)"/><stop id="ezd0x4dv9muh20-fill-1" offset="100%" stop-color="rgb(64,64,64)"/></linearGradient><linearGradient id="ezd0x4dv9muh21-fill" x1="0.455312" y1="0.442214" x2="1.151319" y2="0.301877" spreadMethod="pad" gradientUnits="objectBoundingBox"><stop id="ezd0x4dv9muh21-fill-0" offset="0%" stop-color="rgba(0,0,0,0)"/><stop id="ezd0x4dv9muh21-fill-1" offset="8%" stop-color="rgba(9,9,9,0.08)"/><stop id="ezd0x4dv9muh21-fill-2" offset="100%" stop-color="rgb(105,105,105)"/></linearGradient></defs><g id="ezd0x4dv9muh2"><g id="ezd0x4dv9muh3"><g id="ezd0x4dv9muh4" transform="matrix(1 0 0 1 89 29)"><g id="ezd0x4dv9muh5_to" transform="translate(-0.957012,-8.510000)"><path id="ezd0x4dv9muh5" d="M2.398213,0.670000C2.623796,2.285197,3.019999,3.860773,3.577584,5.360000C4.375145,7.260000,3.204258,8.640000,2.398213,8.640000C1.592167,8.640000,0.370372,7.490000,1.193387,5.360000C1.730049,3.849353,2.133772,2.277789,2.398213,0.670000Z" transform="translate(0,0)" fill="rgb(129,147,167)" stroke="none" stroke-width="1"/></g><g id="ezd0x4dv9muh6_to" transform="translate(-0.957012,-9.077803)"><path id="ezd0x4dv9muh6" d="M2.398213,0.670000C2.623796,2.285197,3.019999,3.860773,3.577584,5.360000C4.375145,7.260000,3.204258,8.640000,2.398213,8.640000C1.592167,8.640000,0.370372,7.490000,1.193387,5.360000C1.730049,3.849353,2.133772,2.277789,2.398213,0.670000Z" transform="translate(0,0)" fill="rgb(129,147,167)" stroke="none" stroke-width="1"/></g><path id="ezd0x4dv9muh7" d="M2.398213,0.670000C2.623796,2.285197,3.019999,3.860773,3.577584,5.360000C4.375145,7.260000,3.204258,8.640000,2.398213,8.640000C1.592167,8.640000,0.370372,7.490000,1.193387,5.360000C1.730049,3.849353,2.133772,2.277789,2.398213,0.670000Z" transform="matrix(1 0 0 1 -1.46201206000008 22.85999999500001)" fill="rgb(129,147,167)" stroke="none" stroke-width="1"/><g id="ezd0x4dv9muh8_to" transform="translate(-0.957012,-9.077803)"><path id="ezd0x4dv9muh8" d="M2.398213,0.670000C2.623796,2.285197,3.019999,3.860773,3.577584,5.360000C4.375145,7.260000,3.204258,8.640000,2.398213,8.640000C1.592167,8.640000,0.370372,7.490000,1.193387,5.360000C1.730049,3.849353,2.133772,2.277789,2.398213,0.670000Z" transform="translate(0,0)" fill="rgb(129,147,167)" stroke="none" stroke-width="1"/></g><g id="ezd0x4dv9muh9_to" transform="translate(-0.957012,-9.077803)"><path id="ezd0x4dv9muh9" d="M2.398213,0.670000C2.623796,2.285197,3.019999,3.860773,3.577584,5.360000C4.375145,7.260000,3.204258,8.640000,2.398213,8.640000C1.592167,8.640000,0.370372,7.490000,1.193387,5.360000C1.730049,3.849353,2.133772,2.277789,2.398213,0.670000Z" transform="translate(0,0)" fill="rgb(129,147,167)" stroke="none" stroke-width="1"/></g><g id="ezd0x4dv9muh10_to" transform="translate(-0.957012,-9.077803)"><path id="ezd0x4dv9muh10" d="M2.398213,0.670000C2.623796,2.285197,3.019999,3.860773,3.577584,5.360000C4.375145,7.260000,3.204258,8.640000,2.398213,8.640000C1.592167,8.640000,0.370372,7.490000,1.193387,5.360000C1.730049,3.849353,2.133772,2.277789,2.398213,0.670000Z" transform="translate(0,0)" fill="rgb(129,147,167)" stroke="none" stroke-width="1"/></g></g><g id="ezd0x4dv9muh11"><g id="ezd0x4dv9muh12"><path id="ezd0x4dv9muh13" d="M92.020000,53.030000C129.920000,53.030000,160.630000,32.810000,160.630000,57.030000C160.630000,81.250000,129.920000,100.960000,92.020000,100.960000C54.120000,100.960000,23.420000,81.290000,23.420000,57.030000C23.420000,32.770000,54.130000,53.030000,92.020000,53.030000Z" fill="url(#ezd0x4dv9muh13-fill)" stroke="none" stroke-width="1"/><path id="ezd0x4dv9muh14" d="M64.560000,120.870000L0,89.100000C0,89.100000,7.840000,93.440000,10.830000,73.800000C11.950000,66.400000,24.720000,49.230000,24.900000,49.600000C25.540000,50.930000,22.970000,57.230000,24.310000,64.600000C26.690000,71,30.560000,76.900000,32.540000,78.820000C43.990000,91.440000,56.540000,94.820000,67.690000,98.210000C76.180000,100.040000,88.310000,100.720000,94.230000,100.940000C100.150000,101.160000,112.520000,99.570000,119.780000,97.240000C107.860000,106.670000,64.560000,120.870000,64.560000,120.870000Z" fill="url(#ezd0x4dv9muh14-fill)" stroke="none" stroke-width="1"/><rect id="ezd0x4dv9muh15" width="53" height="12" rx="3" ry="0" transform="matrix(1 0 0 1 63.42000000000000 0)" fill="url(#ezd0x4dv9muh15-fill)" stroke="none" stroke-width="1"/><g id="ezd0x4dv9muh16" transform="matrix(1 0 0 1 84 6)"><polygon id="ezd0x4dv9muh17" points="2.380000,20.670000 3.490000,21.290000 4.280000,21.570000 4.910000,21.830000 5.910000,21.950000 6.810000,21.950000 7.810000,21.830000 8.660000,21.570000 9.420000,21.290000 10.530000,20.670000 10.530000,23.130000 2.320000,23.130000" fill="rgb(41,41,41)" stroke="none" stroke-width="1"/><rect id="ezd0x4dv9muh18" width="10.990000" height="21.080000" rx="3" ry="0" transform="matrix(1 0 0 1 0.92000000000000 0.50000000000000)" fill="url(#ezd0x4dv9muh18-fill)" stroke="none" stroke-width="1"/><path id="ezd0x4dv9muh19" d="M6.410000,13.330000C7.755511,13.312637,9.070696,13.729989,10.160000,14.520000C11.183448,15.400698,11.813325,16.653253,11.910000,18C11.795925,19.208597,11.155892,20.305797,10.160000,21C9.064120,21.779262,7.754669,22.201778,6.410000,22.210000C5.083992,22.182347,3.796125,21.761180,2.710000,21C1.700241,20.311266,1.042525,19.215074,0.910000,18C1.052920,16.700579,1.699061,15.508808,2.710000,14.680000C3.756294,13.826488,5.059897,13.350849,6.410000,13.330000L6.410000,13.330000Z" fill="rgb(59,59,59)" stroke="none" stroke-width="1"/></g><path id="ezd0x4dv9muh20" d="M39,38.100000C28.400000,30.700000,46.840000,42.440000,49.830000,22.800000C50.950000,15.400000,63.150000,1.250000,63.330000,1.620000C63.970000,2.960000,61.610000,11.690000,66.330000,11.790000C71.050000,11.890000,84.870000,11.790000,84.870000,11.790000L84.870000,24.210000C84.870000,24.210000,78.820000,15.820000,67.350000,19.290000C55.880000,22.760000,49.600000,45.500000,39,38.100000Z" fill="url(#ezd0x4dv9muh20-fill)" stroke="none" stroke-width="1"/><path id="ezd0x4dv9muh21" d="M96.120000,11.790000C100.880000,11.900000,114.480000,11.790000,114.480000,11.790000C108.261953,12.803191,102.125783,14.267048,96.120000,16.170000C96.010006,14.712072,96.010006,13.247928,96.120000,11.790000Z" fill="url(#ezd0x4dv9muh21-fill)" stroke="none" stroke-width="1"/></g></g></g></g></svg>