<svg id="ezlpdbgmcgwp1" xmlns="http://www.w3.org/2000/svg" xmlns:xlink="http://www.w3.org/1999/xlink" viewBox="0 0 60.170000 127.170000" shape-rendering="geometricPrecision" text-rendering="geometricPrecision"><style><![CDATA[#ezlpdbgmcgwp4 {animation: ezlpdbgmcgwp4_f_p 8000ms linear 1 normal forwards}@keyframes ezlpdbgmcgwp4_f_p { 0% {fill: rgb(49,49,49);animation-timing-function: cubic-bezier(0.420000,0,0.580000,1)} 8.750000% {fill: rgba(28,28,28,0.98);animation-timing-function: cubic-bezier(0.420000,0,0.580000,1)} 15% {fill: rgba(34,34,34,0.76);animation-timing-function: cubic-bezier(0.420000,0,0.580000,1)} 24.500000% {fill: rgba(0,0,0,0.26);animation-timing-function: cubic-bezier(0.420000,0,0.580000,1)} 33.625000% {fill: rgba(0,0,0,0.64);animation-timing-function: cubic-bezier(0.420000,0,0.580000,1)} 72.125000% {fill: rgba(50,50,50,0.85);animation-timing-function: cubic-bezier(0.420000,0,0.580000,1)} 77.875000% {fill: rgba(0,0,0,0.85);animation-timing-function: cubic-bezier(0.420000,0,0.580000,1)} 85% {fill: rgb(39,39,39);animation-timing-function: cubic-bezier(0.420000,0,0.580000,1)} 86.250000% {fill: rgb(48,48,48);animation-timing-function: cubic-bezier(0.420000,0,0.580000,1)} 87.500000% {fill: rgb(23,23,23);animation-timing-function: cubic-bezier(0.420000,0,0.580000,1)} 93.750000% {fill: rgb(255,246,246)} 100% {fill: rgb(255,246,246)} }]]></style><defs><filter id="ezlpdbgmcgwp4-filter" x="-400%" width="600%" y="-400%" height="600%"><feColorMatrix id="ezlpdbgmcgwp4-filter-sepia-0" type="matrix" values="1 0 0 0 0 0 1 0 0 0 0 0 1 0 0 0 0 0 1 0" result="result"/><feGaussianBlur id="ezlpdbgmcgwp4-filter-blur-0" stdDeviation="0,10" result="result"/><feComponentTransfer id="ezlpdbgmcgwp4-filter-brightness-0" result="result"><feFuncR id="ezlpdbgmcgwp4-filter-brightness-0-R" type="linear" slope="10"/><feFuncG id="ezlpdbgmcgwp4-filter-brightness-0-G" type="linear" slope="10"/><feFuncB id="ezlpdbgmcgwp4-filter-brightness-0-B" type="linear" slope="10"/></feComponentTransfer></filter></defs><g id="ezlpdbgmcgwp2"><g id="ezlpdbgmcgwp3"><path id="ezlpdbgmcgwp4" d="M132.300111,607.673159L172.813232,612.324842L172.813232,666.927848L132.300111,685.185704Z" transform="matrix(1 0 0 1 -123.32999999999998 -585.96289149999973)" filter="url(#ezlpdbgmcgwp4-filter)" fill="rgb(49,49,49)" stroke="rgb(0,0,0)" stroke-width="1"/></g></g><g id="ezlpdbgmcgwp5"><rect id="ezlpdbgmcgwp6" width="26" height="127" rx="0" ry="0" fill="rgb(152,152,152)" stroke="none" stroke-width="1"/><path id="ezlpdbgmcgwp7" d="M172.900000,660.050000L184,673.110000L149.330000,704.470000L149.330000,678.730000Z" transform="matrix(1 0 0 1 -123.81999999999999 -577.29999999999995)" fill="rgb(131,131,131)" stroke="none" stroke-width="1"/><path id="ezlpdbgmcgwp8" d="M172.768924,593.656937L182.495666,586.870000L182.495666,661.068192L172.760000,649.284372Z" transform="matrix(1 0 0 1 -123.81999999999999 -577.29999999999995)" fill="rgb(152,152,152)" stroke="none" stroke-width="1"/><path id="ezlpdbgmcgwp9" d="M183.730000,586.790000L172.400000,595.490000L149.750000,590.320000L149.750000,577.500000Z" transform="matrix(1 0 0 1 -123.81999999999999 -577.29999999999995)" fill="rgb(126,123,123)" stroke="none" stroke-width="1"/></g><g id="ezlpdbgmcgwp10"><g id="ezlpdbgmcgwp11"><rect id="ezlpdbgmcgwp12" width="26" height="127" rx="0" ry="0" transform="matrix(1 0 0 1 0 0.20000000000000)" fill="rgb(152,152,152)" stroke="none" stroke-width="1"/><path id="ezlpdbgmcgwp13" d="M49.236879,82.750000L60.180000,95.760018L26,127L26,101.358510Z" transform="matrix(0.99999751855108 0.00222775485073 -0.00222775485073 0.99999751855108 0.00000000000002 0.08500000000001)" fill="rgb(131,131,131)" stroke="none" stroke-width="1"/><path id="ezlpdbgmcgwp14" d="M49.005584,17.417704L60.920000,9.180000L60.920000,99.207813L48.940000,84.935990Z" transform="matrix(1 0 0 1 -0.73999999999999 0.01500000000000)" fill="rgb(152,152,152)" stroke="none" stroke-width="1"/><path id="ezlpdbgmcgwp15" d="M59.910000,9.490000L48.580000,18.190000L25.930000,13L25.930000,0.200000Z" transform="matrix(1 0 0 1 -0.42000000000002 -0)" fill="rgb(126,123,123)" stroke="none" stroke-width="1"/></g></g></svg>