<svg id="ezbutp8qhad91" xmlns="http://www.w3.org/2000/svg" xmlns:xlink="http://www.w3.org/1999/xlink" viewBox="0 0 261.510000 378.110000" shape-rendering="geometricPrecision" text-rendering="geometricPrecision"><style><![CDATA[#ezbutp8qhad95_to {animation: ezbutp8qhad95_to__to 4000ms linear infinite normal forwards}@keyframes ezbutp8qhad95_to__to { 0% {transform: translate(181.991182px,335.231890px)} 10% {transform: translate(177.040476px,330.169075px)} 23.500000% {transform: translate(181.991182px,335.231890px)} 35% {transform: translate(177.040476px,330.169075px)} 50% {transform: translate(181.991182px,335.231890px)} 62.500000% {transform: translate(177.040476px,330.169075px)} 75% {transform: translate(181.991182px,335.231890px)} 87.500000% {transform: translate(177.040476px,330.169075px)} 100% {transform: translate(181.991182px,335.231890px)} }#ezbutp8qhad911_tr {animation: ezbutp8qhad911_tr__tr 4000ms linear infinite normal forwards}@keyframes ezbutp8qhad911_tr__tr { 0% {transform: translate(179.237766px,243.257075px) rotate(-8.023856deg);animation-timing-function: cubic-bezier(0.420000,0,0.580000,1)} 10% {transform: translate(179.237766px,243.257075px) rotate(-0.431029deg);animation-timing-function: cubic-bezier(0.420000,0,0.580000,1)} 22.500000% {transform: translate(179.237766px,243.257075px) rotate(-7.050260deg);animation-timing-function: cubic-bezier(0.420000,0,0.580000,1)} 25% {transform: translate(179.237766px,243.257075px) rotate(-8.023856deg);animation-timing-function: cubic-bezier(0.420000,0,0.580000,1)} 35% {transform: translate(179.237766px,243.257075px) rotate(-0.431029deg);animation-timing-function: cubic-bezier(0.420000,0,0.580000,1)} 47.500000% {transform: translate(179.237766px,243.257075px) rotate(-7.050260deg);animation-timing-function: cubic-bezier(0.420000,0,0.580000,1)} 50% {transform: translate(179.237766px,243.257075px) rotate(-8.023856deg);animation-timing-function: cubic-bezier(0.420000,0,0.580000,1)} 60% {transform: translate(179.237766px,243.257075px) rotate(-0.431029deg);animation-timing-function: cubic-bezier(0.420000,0,0.580000,1)} 72.500000% {transform: translate(179.237766px,243.257075px) rotate(-7.050260deg);animation-timing-function: cubic-bezier(0.420000,0,0.580000,1)} 75% {transform: translate(179.237766px,243.257075px) rotate(-8.023856deg);animation-timing-function: cubic-bezier(0.420000,0,0.580000,1)} 85% {transform: translate(179.237766px,243.257075px) rotate(-0.431029deg);animation-timing-function: cubic-bezier(0.420000,0,0.580000,1)} 97.500000% {transform: translate(179.237766px,243.257075px) rotate(-7.050260deg)} 100% {transform: translate(179.237766px,243.257075px) rotate(-7.050260deg)} }#ezbutp8qhad914_tr {animation: ezbutp8qhad914_tr__tr 4000ms linear infinite normal forwards}@keyframes ezbutp8qhad914_tr__tr { 0% {transform: translate(110.795219px,164.020327px) rotate(0deg);animation-timing-function: cubic-bezier(0.420000,0,0.580000,1)} 11% {transform: translate(110.795219px,164.020327px) rotate(4.497789deg)} 22.500000% {transform: translate(110.795219px,164.020327px) rotate(-1.110888deg)} 25% {transform: translate(110.795219px,164.020327px) rotate(0deg);animation-timing-function: cubic-bezier(0.420000,0,0.580000,1)} 36% {transform: translate(110.795219px,164.020327px) rotate(4.497789deg)} 47.500000% {transform: translate(110.795219px,164.020327px) rotate(-1.110888deg)} 50% {transform: translate(110.795219px,164.020327px) rotate(0deg);animation-timing-function: cubic-bezier(0.420000,0,0.580000,1)} 61% {transform: translate(110.795219px,164.020327px) rotate(4.497789deg)} 72.500000% {transform: translate(110.795219px,164.020327px) rotate(-1.110888deg)} 75% {transform: translate(110.795219px,164.020327px) rotate(0deg);animation-timing-function: cubic-bezier(0.420000,0,0.580000,1)} 86% {transform: translate(110.795219px,164.020327px) rotate(4.497789deg)} 97.500000% {transform: translate(110.795219px,164.020327px) rotate(-1.110888deg)} 100% {transform: translate(110.795219px,164.020327px) rotate(-1.110888deg)} }]]></style><defs><clipPath id="ezbutp8qhad92"><rect id="ezbutp8qhad93" width="1920" height="1080" rx="0" ry="0" transform="matrix(1 0 0 1 -0.32000000000000 0.07000000000000)" fill="none" stroke="none" stroke-width="1"/></clipPath></defs><g id="ezbutp8qhad94"><g id="ezbutp8qhad95_to" transform="translate(181.991182,335.231890)"><g id="ezbutp8qhad95" transform="rotate(-2.802105) scale(1.035330,0.946327) translate(-161.578430,-338.102844)"><g id="ezbutp8qhad96"><path id="ezbutp8qhad97" d="M1273.050000,906.470000L1275.050000,921.920000L1290.160000,946.440000C1298.890000,954.280000,1313.720000,954.360000,1304.860000,962.210000C1296,970.060000,1300.220000,974.210000,1277.170000,964.720000L1245.380000,936.850000C1236.640000,929.020000,1230.200000,918.420000,1237.870000,909.330000C1238.930000,908.070000,1243.350000,904.020000,1245.480000,900.460000C1248.290000,895.770000,1249.120000,891.290000,1251.880000,890.460000C1260,888.120000,1267.310000,901.330000,1273.050000,906.470000Z" transform="matrix(0.99799389131927 -0.06331029054913 0.06331029054913 0.99799389131927 -1180.30112487862311 -504.14305444296252)" fill="rgb(52,40,17)" stroke="none" stroke-width="1"/><path id="ezbutp8qhad98" d="M1239.498846,908.997474C1243.743063,907.782282,1249.117321,912.040395,1252.757099,918.343588C1254.024001,920.548796,1254.873234,922.876719,1255.279977,925.259316C1257.592616,931.098168,1249.524660,936.680149,1245.359283,934.150968C1241.841352,931.976692,1239.103773,929.174533,1237.396447,926.000287C1236.818287,924.755456,1235.451728,923.401949,1234.926128,921.554462C1234.508162,919.881181,1234.384463,918.173857,1234.558208,916.476341C1234.731954,914.778824,1236.161287,909.985435,1239.498846,908.997474Z" transform="matrix(1 0 0 1 -1122.56296676041916 -584.99771793585182)" fill="rgb(36,27,6)" stroke="none" stroke-width="1"/></g></g></g></g><g id="ezbutp8qhad99"><g id="ezbutp8qhad910"><g id="ezbutp8qhad911_tr" transform="translate(179.237766,243.257075) rotate(-8.023856)"><path id="ezbutp8qhad911" d="M1316.690000,763.890000L1324.040000,767.240000C1333.510000,771.560000,1337.730000,783.030000,1333.450000,792.850000L1300.770000,872.850000L1295.510000,882.460000L1289.260000,894.460000C1285.306965,904.010328,1274.361764,908.549565,1264.810000,904.600000L1264.380000,904.420000L1257.030000,901.060000C1247.560000,896.740000,1243.340000,885.280000,1247.610000,875.460000L1291.800000,773.830000C1293.696137,769.239434,1297.339724,765.591166,1301.927852,763.689138C1306.515980,761.787110,1311.672101,761.787420,1316.260000,763.690000Z" transform="scale(1.087195,1.027319) translate(-1290.533015,-834.144147)" fill="rgb(150,162,151)" stroke="none" stroke-width="1"/></g></g></g><g id="ezbutp8qhad912"><g id="ezbutp8qhad913"><g id="ezbutp8qhad914_tr" transform="translate(110.795219,164.020327) rotate(0)"><path id="ezbutp8qhad914" d="M1146.170000,714.600000L1210.430000,739.910000L1242.550000,744.340000L1272.910000,748.530000C1283.520000,750.220000,1305.970000,751.700000,1321.390000,760.120000C1333.340000,769.860000,1337.390000,774.340000,1336.230000,781.680000C1333.090000,801.550000,1318.680000,803.010000,1301.840000,800.330000L1255.070000,801.180000L1159.940000,798.510000L1134.690000,795C1117.850000,792.330000,1106.870000,765.560000,1110,745.690000C1113.130000,725.820000,1129.330000,711.920000,1146.170000,714.600000Z" transform="scale(0.966523,1) translate(-1222.943780,-757.808937)" fill="rgb(150,162,151)" stroke="none" stroke-width="1"/></g></g></g><g id="ezbutp8qhad915"><path id="ezbutp8qhad916" d="M1272.450000,631.780000L1273.990000,680.780000L1275.740000,736.780000C1275.820000,745.270000,1267.310000,745.230000,1259.820000,745.850000C1256.460000,743.210000,1252.230000,742.020000,1249.820000,740.760000C1247.110000,739.380000,1246.730000,745.700000,1246.680000,740.760000L1240.990000,714.540000L1238.090000,699.280000L1236.960000,682.340000L1234.640000,653.160000L1238.280000,630.050000C1238.200000,621.560000,1246.720000,615.050000,1257.280000,615.420000C1267.840000,615.790000,1272.370000,623.290000,1272.450000,631.780000Z" transform="matrix(1 0 0 1 -1109.47000000000003 -592.11000000000001)" fill="rgb(226,215,207)" stroke="none" stroke-width="1"/><path id="ezbutp8qhad917" d="M1246.880000,592.110000C1276.610000,591.950000,1274.220000,617.370000,1280.880000,676.360000L1234.440000,681.100000C1234.440000,681.100000,1217.160000,592.270000,1246.880000,592.110000Z" transform="matrix(1 0 0 1 -1109.47000000000003 -592.11000000000001)" fill="rgb(150,162,151)" stroke="none" stroke-width="1"/></g><g id="ezbutp8qhad918"><g id="ezbutp8qhad919"><g id="ezbutp8qhad920" clip-path="url(#ezbutp8qhad92)"><g id="ezbutp8qhad921"><g id="ezbutp8qhad922"/></g></g><path id="ezbutp8qhad923" d="M1338.050000,776.500000L1330.460000,774.350000L1261.460000,752.470000L1249.690000,747C1244.690000,744.870000,1245.490000,739.280000,1247.900000,733.590000C1250.310000,727.900000,1256.320000,725.010000,1261.330000,727.140000L1343.230000,762.040000C1348.230000,764.180000,1350.340000,770.520000,1347.930000,776.210000C1345.520000,781.900000,1343.050000,778.630000,1338.050000,776.500000Z" transform="matrix(0.99914433638708 0 0 0.99998512277256 -1108.46384409999973 -593.55447648500012)" fill="rgb(226,215,207)" stroke="none" stroke-width="1"/><path id="ezbutp8qhad924" d="M1344.360000,784L1349.610000,785.740000L1355.610000,785.740000L1349.610000,786.260000L1344.840000,784.600000C1345.100000,784.670000,1344.480000,784.500000,1343.150000,784C1342.640000,783.800000,1341.700000,781,1340.590000,781.440000C1339.270000,781.900000,1338.420000,785.380000,1341.760000,788.540000C1344,790.670000,1352.600000,794.330000,1356.140000,794.680000C1358.740000,793.050000,1370.820000,787.040000,1370.970000,784C1371.150000,780.500000,1368.630000,774.250000,1366.190000,771.930000C1363.059769,769.350298,1359.455550,767.407213,1355.580000,766.210000L1353.140000,765.360000C1353.140000,765.360000,1349.140000,763.360000,1346.600000,762.360000C1345.398268,761.821978,1344.105456,761.516590,1342.790000,761.460000C1337.320000,760.040000,1335.140000,764.180000,1334.920000,770.670000C1334.780000,774.540000,1332.340000,767.670000,1334.920000,770.670000C1336.300000,772.310000,1342.160000,783.460000,1344.360000,784Z" transform="matrix(1 0 0 1 -1109.47000000000003 -592.11000000000001)" fill="rgb(226,215,207)" stroke="none" stroke-width="1"/></g></g><g id="ezbutp8qhad925" transform="matrix(1 0 0 1 -386.79908135000011 -0.00233724500009)"><g id="ezbutp8qhad926"><g id="ezbutp8qhad927"><g id="ezbutp8qhad928"><path id="ezbutp8qhad929" d="M1168.390000,687.340000C1167.760000,685.750000,1169.010000,685,1170.280000,683.860000C1173.140000,681.290000,1178.970000,677.290000,1182.010000,676.400000L1191.720000,671.400000C1195.990000,670.150000,1205.580000,666.940000,1207.060000,670.640000L1202.720000,677.320000C1204.210000,681.020000,1204.550000,682.670000,1200.280000,683.920000L1192.120000,685.840000L1178.800000,691.840000C1178.160000,692.020000,1178.730000,691.150000,1177.910000,691.010000C1177.360000,690.940000,1175.420000,691.480000,1174.330000,691.220000C1173.240000,690.960000,1172.420000,689.840000,1171.060000,689.060000C1170.270000,688.550000,1168.830000,688.450000,1168.390000,687.340000Z" transform="matrix(1 0 0 1 -723.45000000000005 -577.52999999999997)" fill="rgb(219,208,201)" stroke="none" stroke-width="1"/></g><g id="ezbutp8qhad930"><path id="ezbutp8qhad931" d="M1273.270000,602.580000C1275.510000,616.420000,1283.200000,630.040000,1262.420000,655.580000L1228.580000,725.140000C1226.580000,727.670000,1210.800000,743.140000,1207.420000,744.140000C1203.220000,745.380000,1198.810000,743.560000,1193.170000,743.400000C1186.510000,743.220000,1185.610000,743.660000,1173.570000,742.130000C1152.570000,737.530000,1136.380000,733.460000,1126.090000,724.560000C1108.330000,709.180000,1132.860000,680.910000,1153.640000,655.380000L1198.780000,599.920000C1215.400000,579.510000,1240.100000,571.920000,1259.050000,582.150000C1262.450000,583.980000,1263.650000,587.310000,1264.840000,590.470000C1265.240000,590.820000,1267.340000,594.590000,1269.210000,596.740000C1270.818949,598.495911,1272.184515,600.460173,1273.270000,602.580000Z" transform="matrix(1 0 0 1 -723.45000000000005 -577.52999999999997)" fill="rgb(150,162,151)" stroke="none" stroke-width="1"/><path id="ezbutp8qhad932" style="isolation:isolate" d="M1123.890000,693.080000L1203,595.430000C1207.592066,590.068062,1213.284258,585.757139,1219.690000,582.790000C1229.440000,578.210000,1244.110000,576.050000,1244.520000,578.650000C1244.790000,580.140000,1217.030000,596,1212.380000,603.030000C1194.970000,629.340000,1155.430000,678.170000,1133.310000,700.680000C1126.740000,707.360000,1128.730000,705.060000,1121.370000,705.030000C1117.670000,704.120000,1123.890000,693.080000,1123.890000,693.080000Z" transform="matrix(1 0 0 1 -723.45000000000005 -577.52999999999997)" opacity="0.05" fill="rgb(255,255,255)" stroke="none" stroke-width="1"/></g></g></g><g id="ezbutp8qhad933"><g id="ezbutp8qhad934"><rect id="ezbutp8qhad935" width="468" height="198" rx="49" ry="0" transform="matrix(1 0 0 1 0 127.73999999999999)" fill="none" stroke="none" stroke-width="1"/></g></g></g></svg>