<svg id="ebpgndoeuoma1" xmlns="http://www.w3.org/2000/svg" xmlns:xlink="http://www.w3.org/1999/xlink" viewBox="0 0 254.400000 379.530000" shape-rendering="geometricPrecision" text-rendering="geometricPrecision"><style><![CDATA[#ebpgndoeuoma13_to {animation: ebpgndoeuoma13_to__to 4000ms linear infinite normal forwards}@keyframes ebpgndoeuoma13_to__to { 0% {transform: translate(-899.718202px,-663.727520px);animation-timing-function: cubic-bezier(0,0,0.580000,1)} 10% {transform: translate(-910.038072px,-669.437785px);animation-timing-function: cubic-bezier(0,0,0.580000,1)} 25% {transform: translate(-899.718202px,-663.727520px);animation-timing-function: cubic-bezier(0,0,0.580000,1)} 35% {transform: translate(-910.038072px,-669.437785px);animation-timing-function: cubic-bezier(0,0,0.580000,1)} 50.500000% {transform: translate(-899.718202px,-663.727520px);animation-timing-function: cubic-bezier(0,0,0.580000,1)} 60.500000% {transform: translate(-910.038072px,-669.437785px);animation-timing-function: cubic-bezier(0,0,0.580000,1)} 75.500000% {transform: translate(-899.718202px,-663.727520px);animation-timing-function: cubic-bezier(0,0,0.580000,1)} 85.500000% {transform: translate(-910.038072px,-669.437785px);animation-timing-function: cubic-bezier(0,0,0.580000,1)} 95.500000% {transform: translate(-900.560942px,-664.193831px)} 100% {transform: translate(-900.560942px,-664.193831px)} }#ebpgndoeuoma15_to {animation: ebpgndoeuoma15_to__to 4000ms linear infinite normal forwards}@keyframes ebpgndoeuoma15_to__to { 0% {transform: translate(48.645505px,226.002067px);animation-timing-function: cubic-bezier(0,0,0.580000,1)} 25% {transform: translate(48.645505px,226.002067px);animation-timing-function: cubic-bezier(0,0,0.580000,1)} 47.500000% {transform: translate(48.645505px,226.002067px);animation-timing-function: cubic-bezier(0,0,0.580000,1)} 75% {transform: translate(48.645505px,226.002067px);animation-timing-function: cubic-bezier(0,0,0.580000,1)} 97.500000% {transform: translate(48.645505px,226.002067px)} 100% {transform: translate(48.645505px,226.002067px)} }#ebpgndoeuoma15_tr {animation: ebpgndoeuoma15_tr__tr 4000ms linear infinite normal forwards}@keyframes ebpgndoeuoma15_tr__tr { 0% {transform: rotate(-3.162117deg);animation-timing-function: cubic-bezier(0,0,0.580000,1)} 9.750000% {transform: rotate(2.223207deg);animation-timing-function: cubic-bezier(0,0,0.580000,1)} 25% {transform: rotate(-3.162117deg);animation-timing-function: cubic-bezier(0,0,0.580000,1)} 34.750000% {transform: rotate(2.223207deg);animation-timing-function: cubic-bezier(0,0,0.580000,1)} 50% {transform: rotate(-3.162117deg);animation-timing-function: cubic-bezier(0,0,0.580000,1)} 59.750000% {transform: rotate(2.223207deg);animation-timing-function: cubic-bezier(0,0,0.580000,1)} 75% {transform: rotate(-3.162117deg);animation-timing-function: cubic-bezier(0,0,0.580000,1)} 84.750000% {transform: rotate(2.223207deg);animation-timing-function: cubic-bezier(0,0,0.580000,1)} 97.250000% {transform: rotate(-0.095630deg)} 100% {transform: rotate(-0.095630deg)} }#ebpgndoeuoma17_tr {animation: ebpgndoeuoma17_tr__tr 4000ms linear infinite normal forwards}@keyframes ebpgndoeuoma17_tr__tr { 0% {transform: translate(127.200000px,154.876214px) rotate(0deg);animation-timing-function: cubic-bezier(0,0,0.580000,1)} 10% {transform: translate(127.200000px,154.876214px) rotate(-3.593227deg);animation-timing-function: cubic-bezier(0,0,0.580000,1)} 25% {transform: translate(127.200000px,154.876214px) rotate(0deg);animation-timing-function: cubic-bezier(0,0,0.580000,1)} 35% {transform: translate(127.200000px,154.876214px) rotate(-3.593227deg);animation-timing-function: cubic-bezier(0,0,0.580000,1)} 50% {transform: translate(127.200000px,154.876214px) rotate(0deg);animation-timing-function: cubic-bezier(0,0,0.580000,1)} 60% {transform: translate(127.200000px,154.876214px) rotate(-3.593227deg);animation-timing-function: cubic-bezier(0,0,0.580000,1)} 75% {transform: translate(127.200000px,154.876214px) rotate(0deg);animation-timing-function: cubic-bezier(0,0,0.580000,1)} 85% {transform: translate(127.200000px,154.876214px) rotate(-3.593227deg);animation-timing-function: cubic-bezier(0,0,0.580000,1)} 97.500000% {transform: translate(127.200000px,154.876214px) rotate(0.629970deg)} 100% {transform: translate(127.200000px,154.876214px) rotate(0.629970deg)} }]]></style><defs><clipPath id="ebpgndoeuoma2"><rect id="ebpgndoeuoma3" width="1402" height="1080" rx="0" ry="0" transform="matrix(1 0 0 1 0.25000000000000 -0.25000000000000)" fill="none" stroke="none" stroke-width="1"/></clipPath><clipPath id="ebpgndoeuoma4"><rect id="ebpgndoeuoma5" width="1402" height="1080" rx="0" ry="0" transform="matrix(1 0 0 1 259.44999999999999 0.27000000000000)" fill="none" stroke="none" stroke-width="1"/></clipPath><clipPath id="ebpgndoeuoma6"><rect id="ebpgndoeuoma7" width="1402" height="1080" rx="0" ry="0" transform="matrix(1 0 0 1 259.44999999999999 0.27000000000000)" fill="none" stroke="none" stroke-width="1"/></clipPath><clipPath id="ebpgndoeuoma8"><rect id="ebpgndoeuoma9" width="1402" height="1080" rx="0" ry="0" transform="matrix(1 0 0 1 259.44999999999999 0.27000000000000)" fill="none" stroke="none" stroke-width="1"/></clipPath><clipPath id="ebpgndoeuoma10"><rect id="ebpgndoeuoma11" width="1402" height="1080" rx="0" ry="0" transform="matrix(1 0 0 1 -966.25000000000000 -647.65999999999997)" fill="none" stroke="none" stroke-width="1"/></clipPath></defs><g id="ebpgndoeuoma12"><g id="ebpgndoeuoma13_to" transform="translate(-899.718202,-663.727520)"><path id="ebpgndoeuoma13" d="M959.180000,966.920000L956.690000,981.920000L940.310000,1005.620000C931,1013.150000,915.560000,1013.120000,924.570000,1020.810000C933.580000,1028.500000,929.080000,1032.540000,953.340000,1023.460000L987.200000,996.650000C996.510000,989.110000,1003.500000,978.870000,995.760000,969.970000C994.690000,968.740000,990.190000,964.780000,988.060000,961.300000C985.270000,956.720000,984.520000,952.380000,981.660000,951.570000C973.220000,949.200000,965.300000,962,959.180000,966.920000Z" transform="rotate(-0.354721) scale(1.001678,1) translate(0,0)" fill="rgb(203,196,191)" stroke="none" stroke-width="1"/></g></g><g id="ebpgndoeuoma14"><g id="ebpgndoeuoma15_to" transform="translate(48.645505,226.002067)"><g id="ebpgndoeuoma15_tr" transform="rotate(-3.162117)"><path id="ebpgndoeuoma15" d="M917.620000,828.140000L909.880000,831.330000C899.880000,835.450000,895.210000,846.540000,899.390000,856.100000L942.630000,955.100000C946.810000,964.670000,958.280000,969.100000,968.260000,964.970000L976,961.780000C986,957.660000,990.670000,946.570000,986.490000,937.010000L943.240000,838.010000C939.070000,828.450000,927.590000,824,917.620000,828.140000Z" transform="scale(0.995262,0.996380) translate(-942.940000,-896.553602)" fill="rgb(130,141,131)" stroke="none" stroke-width="1"/></g></g></g><g id="ebpgndoeuoma16"><g id="ebpgndoeuoma17_tr" transform="translate(127.200000,154.876214) rotate(0)"><path id="ebpgndoeuoma17" d="M1098.920000,781.480000L1030.600000,805.580000L996.690000,809.650000L964.640000,813.490000C953.440000,815.050000,929.780000,816.330000,913.310000,824.390000C900.460000,833.760000,896.080000,838.080000,897.090000,845.220000C899.810000,864.540000,914.930000,866.060000,932.720000,863.590000L981.880000,864.750000L1082,862.860000L1108.670000,859.660000C1126.450000,857.180000,1138.780000,831.270000,1136.060000,811.960000C1133.340000,792.650000,1116.700000,779,1098.920000,781.480000Z" transform="translate(-1016.693297,-822.969540)" fill="rgb(130,141,131)" stroke="none" stroke-width="1"/></g></g><g id="ebpgndoeuoma18"><g id="ebpgndoeuoma19" clip-path="url(#ebpgndoeuoma2)"><g id="ebpgndoeuoma20"><g id="ebpgndoeuoma21"><g id="ebpgndoeuoma22"><path id="ebpgndoeuoma23" d="M965.530000,693.850000L913.300000,799.850000C908.960000,808.330000,913.430000,818.680000,919.380000,822.570000C929.250000,819.740000,935.120000,817.290000,939.460000,808.800000L953.570000,792.720000L963.670000,778.720000L973.140000,762.200000L989.750000,733.930000L998.330000,709.140000C1002.660000,700.650000,998.830000,690.360000,989.780000,686.140000C980.730000,681.920000,969.870000,685.360000,965.530000,693.850000Z" transform="matrix(1 0 0 1 -882.01999999999998 -649.13000000000000)" fill="rgb(203,196,191)" stroke="none" stroke-width="1"/><path id="ebpgndoeuoma24" d="M922.500000,696.060000L921.130000,704.930000L909.310000,781.800000L910.890000,801.510000C910.670000,807.700000,916.290000,809.510000,922.730000,809.750000C929.043539,810.079379,934.435119,805.242157,934.790000,798.930000L938.470000,697.600000C938.575843,691.301923,933.558014,686.109522,927.260000,686L927.260000,686C920.790000,685.790000,922.730000,689.870000,922.500000,696.060000Z" transform="matrix(1 0 0 1 -882.01999999999998 -649.13000000000000)" fill="rgb(203,196,191)" stroke="none" stroke-width="1"/><path id="ebpgndoeuoma25" d="M928.090000,682.080000L922.090000,681.080000L910.890000,681.080000L901.510000,676.830000C895.290000,675.220000,892.090000,677.980000,890.410000,683.960000C888.730000,689.940000,893.510000,695.550000,899.730000,697.160000L910.730000,698.810000L913.460000,699.730000C913.460000,699.730000,917.740000,701.830000,920.620000,702.870000C922.011626,703.430785,923.483085,703.768275,924.980000,703.870000C931.200000,705.480000,934.710000,701.770000,936.380000,695.780000C937.134354,692.907548,936.714821,689.852990,935.213968,687.290282C933.713114,684.727575,931.254287,682.867333,928.380000,682.120000Z" transform="matrix(1 0 0 1 -882.01999999999998 -649.13000000000000)" fill="rgb(203,196,191)" stroke="none" stroke-width="1"/><path id="ebpgndoeuoma26" d="M883.770000,649.300000C881.950000,650.080000,882.170000,651.570000,882.070000,653.390000C881.840000,657.470000,882.430000,664.830000,883.780000,667.730000L886.160000,678.730000C888.050000,682.800000,891.950000,692.280000,896.160000,690.470000L898.930000,682.090000C903.170000,680.280000,904.840000,679.240000,902.930000,675.170000L898.930000,667.740000L894.840000,653.400000C894.560000,652.790000,894.200000,653.890000,893.510000,653.400000C893.060000,653.060000,892.180000,651.220000,891.200000,650.640000C890.220000,650.060000,888.670000,650.320000,887.040000,649.950000C886.130000,649.720000,885,648.750000,883.770000,649.300000Z" transform="matrix(1 0 0 1 -882.01999999999998 -649.13000000000000)" fill="rgb(203,196,191)" stroke="none" stroke-width="1"/><path id="ebpgndoeuoma27" d="M902.920000,668.330000C902.006959,669.045600,901.415914,670.094869,901.277107,671.246589C901.138300,672.398310,901.463124,673.557961,902.180000,674.470000L902.330000,674.650000L913.110000,687C914.805768,688.902863,917.696289,689.140440,919.680000,687.540000C921.680000,685.940000,926.680000,685.790000,925.040000,683.900000L910.770000,675.340000C909.110000,673.450000,904.900000,666.730000,902.920000,668.330000Z" transform="matrix(1 0 0 1 -882.01999999999998 -649.13000000000000)" fill="rgb(203,196,191)" stroke="none" stroke-width="1"/><path id="ebpgndoeuoma28" d="M996.910000,675.500000C972.680000,655.820000,938.370000,734.890000,938.370000,734.890000L981.580000,755C981.580000,755,1021.140000,695.170000,996.910000,675.500000Z" transform="matrix(1 0 0 1 -882.01999999999998 -649.13000000000000)" fill="rgb(130,141,131)" stroke="none" stroke-width="1"/></g></g></g></g></g><g id="ebpgndoeuoma29" transform="matrix(1 0 0 1 -207.82654135000001 20.78375292500007)"><g id="ebpgndoeuoma30"><g id="ebpgndoeuoma31"><g id="ebpgndoeuoma32"/><g id="ebpgndoeuoma33"/></g></g><g id="ebpgndoeuoma34"><g id="ebpgndoeuoma35"><rect id="ebpgndoeuoma36" width="468" height="198" rx="49" ry="0" transform="matrix(1 0 0 1 0 127.73999999999999)" fill="none" stroke="none" stroke-width="1"/></g></g></g><g id="ebpgndoeuoma37" transform="matrix(1 0 0 1 353.67113100000000 55.11408428500002)" clip-path="url(#ebpgndoeuoma8)"><g id="ebpgndoeuoma38" transform="matrix(0.99999781351960 -0.00209116140427 0.00209116140427 0.99999781351960 0 0)"><path id="ebpgndoeuoma39" d="M1229.650000,672C1226.940000,685.410000,1218.570000,698.560000,1239.500000,723.500000L1272.840000,791.290000C1274.910000,793.760000,1290.840000,808.880000,1294.360000,809.870000C1298.690000,811.090000,1303.360000,809.360000,1309.210000,809.260000C1316.140000,809.140000,1317.070000,809.580000,1329.640000,808.190000C1351.570000,803.900000,1368.590000,800.090000,1379.540000,791.530000C1398.450000,776.760000,1373.680000,749.120000,1352.750000,724.170000L1307.260000,669.970000C1290.520000,650,1265,642.390000,1245,652.190000C1241.420000,653.940000,1240.080000,657.190000,1238.750000,660.190000C1238.330000,660.530000,1236.040000,664.190000,1234.030000,666.190000C1232.311723,667.917729,1230.838043,669.872542,1229.650000,672Z" transform="matrix(1 0 0 1 -1485.81880691017159 -680.03149843558515)" fill="rgb(103,116,104)" stroke="none" stroke-width="1"/></g></g><g id="ebpgndoeuoma40" transform="matrix(1 0 0 1 89.53948748499997 18.95435852500000)" clip-path="url(#ebpgndoeuoma10)"><g id="ebpgndoeuoma41"><path id="ebpgndoeuoma42" d="M4,24.070000C1.240000,37.480000,-7.130000,50.630000,13.800000,75.570000L47.140000,143.360000C49.210000,145.830000,65.140000,160.950000,68.660000,161.940000C72.990000,163.160000,77.660000,161.430000,83.510000,161.330000C90.440000,161.210000,91.370000,161.650000,103.940000,160.260000C125.870000,155.970000,142.890000,152.160000,153.840000,143.600000C172.750000,128.830000,147.980000,101.190000,127.050000,76.240000L81.560000,22C64.820000,2.070000,39.300000,-5.540000,19.300000,4.260000C15.720000,6.010000,14.380000,9.260000,13.050000,12.260000C12.630000,12.600000,10.340000,16.260000,8.330000,18.260000C6.629358,19.990908,5.172613,21.945570,4,24.070000Z" transform="matrix(1 0 0 1 -3.17172169000000 -1.39301941500000)" fill="rgb(130,141,131)" stroke="none" stroke-width="1"/></g></g></svg>