<svg id="evfrwwxd1iv1" xmlns="http://www.w3.org/2000/svg" xmlns:xlink="http://www.w3.org/1999/xlink" viewBox="0 0 134.250000 42.810000" shape-rendering="geometricPrecision" text-rendering="geometricPrecision"><style><![CDATA[#evfrwwxd1iv7_tr {animation: evfrwwxd1iv7_tr__tr 5000ms linear 1 normal forwards}@keyframes evfrwwxd1iv7_tr__tr { 0% {transform: translate(116.385740px,20.917029px) rotate(9.253607deg)} 16% {transform: translate(116.385740px,20.917029px) rotate(5.063639deg)} 30% {transform: translate(116.385740px,20.917029px) rotate(9.253607deg)} 46% {transform: translate(116.385740px,20.917029px) rotate(1.046392deg)} 64.200000% {transform: translate(116.385740px,20.917029px) rotate(9.253607deg)} 82.200000% {transform: translate(116.385740px,20.917029px) rotate(1.046392deg)} 100% {transform: translate(116.385740px,20.917029px) rotate(1.046392deg)} }#evfrwwxd1iv13_to {animation: evfrwwxd1iv13_to__to 5000ms linear 1 normal forwards}@keyframes evfrwwxd1iv13_to__to { 0% {transform: translate(-1173.243105px,-711.623648px)} 14% {transform: translate(-1174.243105px,-711.623648px)} 30% {transform: translate(-1173.243105px,-711.623648px)} 46% {transform: translate(-1174.243105px,-711.623648px)} 64% {transform: translate(-1173.243105px,-711.623648px)} 82.200000% {transform: translate(-1174.243105px,-711.623648px)} 100% {transform: translate(-1174.243105px,-711.623648px)} }#evfrwwxd1iv13_tr {animation: evfrwwxd1iv13_tr__tr 5000ms linear 1 normal forwards}@keyframes evfrwwxd1iv13_tr__tr { 0% {transform: rotate(0deg);animation-timing-function: cubic-bezier(0.420000,0,0.580000,1)} 82% {transform: rotate(0.024013deg)} 100% {transform: rotate(0.024013deg)} }]]></style><defs><clipPath id="evfrwwxd1iv2"><rect id="evfrwwxd1iv3" width="1920" height="1080" rx="0" ry="0" transform="matrix(1 0 0 1 0.45000000000000 -0.18000000000000)" fill="none" stroke="none" stroke-width="1"/></clipPath></defs><g id="evfrwwxd1iv4"><g id="evfrwwxd1iv5" clip-path="url(#evfrwwxd1iv2)"><g id="evfrwwxd1iv6"><g id="evfrwwxd1iv7_tr" transform="translate(116.385740,20.917029) rotate(9.253607)"><g id="evfrwwxd1iv7" transform="translate(-116.542328,-18.292910)"><g id="evfrwwxd1iv8" transform="matrix(0.99999993091805 0.00037170404621 -0.00037170404621 0.99999993091805 -2.32610667625870 -0.00427246000000)"><path id="evfrwwxd1iv9" d="M1292.510000,746.430000L1295.400000,749.490000L1295.200000,745.700000L1294.700000,744.610000L1292.390000,744.530000C1292.150187,744.476752,1291.918265,744.392722,1291.700000,744.280000Z" transform="matrix(0.99999999905313 -0.00004351715731 0.00004351715731 0.99999999905313 -1167 -713.67744463999998)" fill="rgb(103,103,103)" stroke="none" stroke-width="1"/><path id="evfrwwxd1iv10" d="M1278.270000,713.800000L1276.040000,714.800000L1292.440000,746.360000L1295.060000,745.310000Z" transform="matrix(0.99999720011387 -0.00236638213720 0.00236638213720 0.99999720011387 -1168.38917163798124 -710.08491461565950)" fill="rgb(103,103,103)" stroke="none" stroke-width="1"/><path id="evfrwwxd1iv11" d="M1276.320000,714.109999C1276.498744,713.998745,1276.685992,713.901777,1276.880000,713.819999C1277.710000,713.480000,1278.100000,713.590000,1278.290000,713.819999C1278.480000,714.049999,1278.350000,714.029999,1278.200000,714.129998C1278.050000,714.229998,1277.770000,714.349998,1277.420000,714.539997C1276.720000,714.899996,1276.220000,714.999996,1276.020000,714.759997C1275.820000,714.519997,1276,714.359998,1276.320000,714.109999Z" transform="matrix(1 0 0 1 -1166.55554065284832 -712.94968446566338)" fill="rgb(139,134,134)" stroke="none" stroke-width="1"/></g></g></g><g id="evfrwwxd1iv12"><g id="evfrwwxd1iv13_to" transform="translate(-1173.243105,-711.623648)"><g id="evfrwwxd1iv13_tr" transform="rotate(0)"><path id="evfrwwxd1iv13" d="M1267.507315,739.803306C1267.507315,739.803306,1274.160631,745.123819,1279.727479,745.846573C1283.359687,746.265057,1287.042718,746.265057,1290.674926,745.846573L1295.362254,739.803306L1298.166373,737.260607C1300.101319,733.481388,1305.285317,731.165093,1295.362254,727.681942C1291.245628,726.507269,1286.939534,725.870015,1282.593682,725.792333L1279.727479,725.661715C1279.727479,725.661715,1274.988415,725.026040,1271.935960,724.843175C1270.752000,724.852155,1269.578973,725.034856,1268.469614,725.383063C1264.775627,726.349637,1259.332946,729.083911,1259.767532,732.349364C1260.119341,734.909480,1256.466743,730.834194,1259.767532,732.349364C1261.547268,733.133073,1264.941184,739.820722,1267.507315,739.803306Z" transform="translate(0,0)" fill="rgb(237,217,204)" stroke="none" stroke-width="1"/></g></g></g></g></g></g><g id="evfrwwxd1iv14"/><path id="evfrwwxd1iv15" d="M1289.860000,723.830000C1294.150000,722.940000,1279.940000,717.680000,1277.670000,718.460000L1267.730000,721.680000C1265.460000,722.460000,1256.200000,728.840000,1256.500000,730.870000C1256.800000,732.900000,1262.160000,732.870000,1264.430000,732.090000L1275.370000,722.950000C1276.560000,722.540000,1275.370000,722.320000,1277.670000,722.180000C1278.990000,722.110000,1283.230000,722.100000,1284.670000,722.950000C1286.110000,723.800000,1289.590000,723.890000,1289.860000,723.830000Z" transform="matrix(1 0 0 1 -1167.66486634781404 -711.43860196326989)" fill="rgb(237,217,204)" stroke="none" stroke-width="1"/><g id="evfrwwxd1iv16"/></svg>