<svg id="e45n2sjjoab1" xmlns="http://www.w3.org/2000/svg" xmlns:xlink="http://www.w3.org/1999/xlink" viewBox="0 0 134.250000 42.810000" shape-rendering="geometricPrecision" text-rendering="geometricPrecision"><style><![CDATA[#e45n2sjjoab7_to {animation: e45n2sjjoab7_to__to 3000ms linear 1 normal forwards}@keyframes e45n2sjjoab7_to__to { 0% {transform: translate(0px,0px)} 23.333333% {transform: translate(2.438317px,-0.004272px)} 46.666667% {transform: translate(-2.327955px,-0.004272px)} 100% {transform: translate(-2.327955px,-0.004272px)} }#e45n2sjjoab7_tr {animation: e45n2sjjoab7_tr__tr 3000ms linear 1 normal forwards}@keyframes e45n2sjjoab7_tr__tr { 0% {transform: rotate(-0.099976deg)} 46.666667% {transform: rotate(-0.099976deg)} 66.666667% {transform: rotate(0.456579deg)} 86.666667% {transform: rotate(0.021255deg)} 100% {transform: rotate(0.021255deg)} }#e45n2sjjoab14_to {animation: e45n2sjjoab14_to__to 3000ms linear 1 normal forwards}@keyframes e45n2sjjoab14_to__to { 0% {transform: translate(-1170.373883px,-712.875436px)} 23.333333% {transform: translate(-1167.883624px,-712.879709px)} 46.666667% {transform: translate(-1171.477454px,-712.879709px)} 83.333333% {transform: translate(-1172.047994px,-713.621487px)} 100% {transform: translate(-1172.047994px,-713.621487px)} }#e45n2sjjoab14_tr {animation: e45n2sjjoab14_tr__tr 3000ms linear 1 normal forwards}@keyframes e45n2sjjoab14_tr__tr { 0% {transform: rotate(0deg)} 47.666667% {transform: rotate(0deg)} 66.666667% {transform: rotate(0.049511deg)} 86.666667% {transform: rotate(0.024013deg)} 100% {transform: rotate(0.024013deg)} }]]></style><defs><clipPath id="e45n2sjjoab2"><rect id="e45n2sjjoab3" width="1920" height="1080" rx="0" ry="0" transform="matrix(1 0 0 1 0.45000000000000 -0.18000000000000)" fill="none" stroke="none" stroke-width="1"/></clipPath></defs><g id="e45n2sjjoab4"><g id="e45n2sjjoab5" clip-path="url(#e45n2sjjoab2)"><g id="e45n2sjjoab6"><g id="e45n2sjjoab7_to" transform="translate(0,0)"><g id="e45n2sjjoab7_tr" transform="rotate(-0.099976)"><g id="e45n2sjjoab7" transform="translate(0,0)"><g id="e45n2sjjoab8"><path id="e45n2sjjoab9" d="M1289.860000,723.830000C1294.150000,722.940000,1279.940000,717.680000,1277.670000,718.460000L1267.730000,721.680000C1265.460000,722.460000,1256.200000,728.840000,1256.500000,730.870000C1256.800000,732.900000,1262.160000,732.870000,1264.430000,732.090000L1275.370000,722.950000C1276.560000,722.540000,1275.370000,722.320000,1277.670000,722.180000C1278.990000,722.110000,1283.230000,722.100000,1284.670000,722.950000C1286.110000,723.800000,1289.590000,723.890000,1289.860000,723.830000Z" transform="matrix(1 0 0 1 -1166.99999999000033 -713.29849595000007)" fill="rgb(226,215,207)" stroke="none" stroke-width="1"/></g><path id="e45n2sjjoab10" d="M1292.510000,746.430000L1295.400000,749.490000L1295.200000,745.700000L1294.700000,744.610000L1292.390000,744.530000C1292.150187,744.476752,1291.918265,744.392722,1291.700000,744.280000Z" transform="matrix(0.99999999905313 -0.00004351715731 0.00004351715731 0.99999999905313 -1167 -713.67744463999998)" fill="rgb(103,103,103)" stroke="none" stroke-width="1"/><path id="e45n2sjjoab11" d="M1278.270000,713.800000L1276.040000,714.800000L1292.440000,746.360000L1295.060000,745.310000Z" transform="matrix(1 0 0 1 -1166.65999999500082 -713.15244464499995)" fill="rgb(103,103,103)" stroke="none" stroke-width="1"/><path id="e45n2sjjoab12" d="M1276.320000,714.110000C1276.498744,713.998746,1276.685992,713.901778,1276.880000,713.820000C1277.710000,713.480000,1278.100000,713.590000,1278.290000,713.820000C1278.480000,714.050000,1278.350000,714.030000,1278.200000,714.130000C1278.050000,714.230000,1277.770000,714.350000,1277.420000,714.540000C1276.720000,714.900000,1276.220000,715,1276.020000,714.760000C1275.820000,714.520000,1276,714.360000,1276.320000,714.110000Z" transform="matrix(1 0 0 1 -1167 -713.60000000000002)" fill="rgb(139,134,134)" stroke="none" stroke-width="1"/></g></g></g><g id="e45n2sjjoab13"><g id="e45n2sjjoab14_to" transform="translate(-1170.373883,-712.875436)"><g id="e45n2sjjoab14_tr" transform="rotate(0)"><path id="e45n2sjjoab14" d="M1268.640000,738.860000C1268.640000,738.860000,1275.070000,744.970000,1280.450000,745.800000C1283.960294,746.280581,1287.519706,746.280581,1291.030000,745.800000L1295.560000,738.860000L1298.270000,735.940000C1300.140000,731.600000,1305.150000,728.940000,1295.560000,724.940000C1291.581546,723.591022,1287.419985,722.859208,1283.220000,722.770000L1280.450000,722.620000C1280.450000,722.620000,1275.870000,721.890000,1272.920000,721.680000C1271.775778,721.690313,1270.642124,721.900124,1269.570000,722.300000C1266,723.410000,1260.740000,726.550000,1261.160000,730.300000C1261.500000,733.240000,1257.970000,728.560000,1261.160000,730.300000C1262.880000,731.200000,1266.160000,738.880000,1268.640000,738.860000Z" transform="translate(0,0)" fill="rgb(226,215,207)" stroke="none" stroke-width="1"/></g></g></g></g></g></g><g id="e45n2sjjoab15"><path id="e45n2sjjoab16" d="M1276.470000,742.880000C1276.470000,742.880000,1263.830000,740.880000,1260.270000,741.880000C1237.110000,745.260000,1183.810000,756.370000,1183.810000,756.370000C1183.810000,756.370000,1175.450000,756.140000,1171.260000,752.760000C1168.590000,749.380000,1167.430000,747.130000,1167.050000,742.840000C1166.510000,736.690000,1170.400000,731.330000,1175.750000,730.840000L1264.950000,725.840000C1270.290000,725.380000,1273.380000,727.490000,1273.950000,733.640000C1274.520000,739.790000,1281.810000,742.420000,1276.470000,742.880000Z" transform="matrix(1 0 0 1 -1167 -713.60000000000002)" fill="rgb(226,215,207)" stroke="none" stroke-width="1"/></g></svg>